<?xml version="1.0" encoding="UTF-8" standalone="no"?>
<!DOCTYPE svg PUBLIC "-//W3C//DTD SVG 1.1//EN" "http://www.w3.org/Graphics/SVG/1.1/DTD/svg11.dtd">
<svg width="100%" height="100%" viewBox="0 0 586 446" version="1.1" xmlns="http://www.w3.org/2000/svg" xmlns:xlink="http://www.w3.org/1999/xlink" xml:space="preserve" xmlns:serif="http://www.serif.com/" style="fill-rule:evenodd;clip-rule:evenodd;stroke-linejoin:round;stroke-miterlimit:2;">
    <path d="M191.992,445.508L393.555,445.508C536.328,445.508 585.547,392.188 585.547,260.742L585.547,184.766C585.547,53.32 536.328,0 393.555,0L191.992,0C49.219,0 0,53.32 0,184.766L0,260.742C0,392.188 49.219,445.508 191.992,445.508Z" style="fill:url(#_Linear1);fill-rule:nonzero;"/>
    <g transform="matrix(0.966876,0,0,0.931688,9.69785,15.2168)">
        <path d="M8.587,222.963L576.96,222.963L576.96,184.766C576.96,53.32 527.741,0 384.968,0L200.579,0C57.805,0 8.587,53.32 8.587,184.766L8.587,222.963Z" style="fill:url(#_Linear2);fill-rule:nonzero;"/>
    </g>
    <path d="M191.992,445.508L393.555,445.508C536.328,445.508 585.547,392.188 585.547,260.742L585.547,184.766C585.547,53.32 536.328,0 393.555,0L191.992,0C49.219,0 0,53.32 0,184.766L0,260.742C0,392.188 49.219,445.508 191.992,445.508Z" style="fill:url(#_Radial3);fill-rule:nonzero;"/>
    <defs>
        <linearGradient id="_Linear1" x1="0" y1="0" x2="1" y2="0" gradientUnits="userSpaceOnUse" gradientTransform="matrix(2.72795e-14,445.508,-445.508,2.72795e-14,242,0)"><stop offset="0" style="stop-color:rgb(194,194,194);stop-opacity:1"/><stop offset="0.77" style="stop-color:rgb(245,245,245);stop-opacity:1"/><stop offset="1" style="stop-color:white;stop-opacity:1"/></linearGradient>
        <linearGradient id="_Linear2" x1="0" y1="0" x2="1" y2="0" gradientUnits="userSpaceOnUse" gradientTransform="matrix(-1.84379e-13,222.963,-222.963,-1.84379e-13,292.774,0)"><stop offset="0" style="stop-color:white;stop-opacity:0.95"/><stop offset="1" style="stop-color:white;stop-opacity:0.5"/></linearGradient>
        <radialGradient id="_Radial3" cx="0" cy="0" r="1" gradientUnits="userSpaceOnUse" gradientTransform="matrix(292.774,222.949,-222.949,292.774,292.774,222.949)"><stop offset="0" style="stop-color:black;stop-opacity:0"/><stop offset="0.67" style="stop-color:black;stop-opacity:0"/><stop offset="1" style="stop-color:black;stop-opacity:0.3"/></radialGradient>
    </defs>
</svg>
